<svg data-v-d3f97b9e="" xmlns="http://www.w3.org/2000/svg" viewBox="0 0 336.8170499122917 60"><!----><!----><!----><g data-v-d3f97b9e="" id="dc1cdb1e-5b2a-4d5f-82e8-3c0629493e92" fill="#024a81" transform="matrix(4.92206705261137,0,0,4.92206705261137,-2.7563526992853156,-18.211648090945936)"><path d="M8.76 12.28C8.76 12.38 8.75 13.22 8.22 14.07C7.73 14.88 6.72 15.83 4.66 15.83C3.04 15.83 1.76 15.15 1.08 13.93C0.76 13.34 0.63 12.77 0.59 12.40C0.59 12.38 0.57 12.35 0.57 12.32C0.57 12.18 0.69 12.05 0.83 12.04L2.55 12.04C2.66 12.05 2.74 12.12 2.77 12.24L2.77 12.25C2.77 12.26 2.79 12.28 2.79 12.29C2.81 12.46 2.88 12.70 3.02 12.91C3.32 13.40 3.86 13.65 4.66 13.65C5.52 13.65 6.06 13.41 6.36 12.94C6.55 12.61 6.58 12.26 6.58 12.26C6.58 11.87 6.48 11.41 5.75 11.12C5.22 10.89 4.66 10.88 4.66 10.88C4.56 10.88 3.67 10.86 2.74 10.50C1.33 9.93 0.56 8.81 0.56 7.34C0.56 7.20 0.59 5.89 1.61 4.87C2.34 4.13 3.37 3.75 4.66 3.75C5.49 3.75 6.68 3.93 7.59 4.86C8.47 5.75 8.69 6.89 8.75 7.45L8.75 7.48C8.75 7.64 8.64 7.77 8.48 7.77L6.79 7.77C6.68 7.76 6.58 7.66 6.55 7.55L6.55 7.50C6.51 7.31 6.44 7.03 6.30 6.75C6.10 6.40 5.73 5.94 4.66 5.94C3.98 5.94 3.47 6.09 3.15 6.41C2.77 6.79 2.74 7.34 2.74 7.34C2.74 7.73 2.84 8.18 3.57 8.47C4.10 8.68 4.66 8.69 4.66 8.69C4.76 8.69 5.66 8.71 6.58 9.09C7.99 9.67 8.76 10.81 8.76 12.28ZM18.37 15.53C18.37 15.68 18.26 15.81 18.10 15.81L16.10 15.81C16.02 15.81 15.95 15.78 15.89 15.71L15.88 15.68L12.49 10.92L12.49 15.53C12.49 15.68 12.38 15.81 12.22 15.81L10.58 15.81C10.43 15.81 10.30 15.68 10.30 15.53L10.30 8.69L11.59 8.69L10.33 4.20L10.30 4.09L10.30 4.06C10.30 3.91 10.43 3.78 10.58 3.78L12.29 3.78C12.40 3.78 12.52 3.86 12.54 3.98L13.65 7.92L15.86 3.93C15.92 3.84 16.00 3.78 16.11 3.78L17.98 3.78C18.13 3.78 18.26 3.91 18.26 4.06C18.26 4.10 18.24 4.14 18.23 4.19L18.20 4.23L14.78 10.37L18.30 15.33L18.34 15.37C18.35 15.41 18.37 15.47 18.37 15.53ZM24.29 5.95L24.29 13.61L26.12 13.61C26.32 13.61 26.47 13.73 26.47 13.89L26.47 15.53C26.47 15.68 26.32 15.81 26.12 15.81L20.19 15.81C20.03 15.81 19.91 15.68 19.91 15.53L19.91 13.89C19.91 13.73 20.03 13.61 20.19 13.61L22.09 13.61L22.09 5.95L20.19 5.95C20.03 5.95 19.91 5.84 19.91 5.68L19.91 4.05C19.91 3.89 20.03 3.77 20.19 3.77L26.12 3.77C26.32 3.77 26.47 3.89 26.47 4.05L26.47 5.68C26.47 5.84 26.32 5.95 26.12 5.95ZM36.36 15.89L30.34 9.32L30.34 15.53C30.34 15.68 30.23 15.81 30.07 15.81L28.43 15.81C28.28 15.81 28.15 15.68 28.15 15.53L28.15 3.70L34.17 10.26L34.17 4.06C34.17 3.91 34.30 3.78 34.44 3.78L36.09 3.78C36.23 3.78 36.36 3.91 36.36 4.06ZM46.31 15.37L44.09 11.42L43.78 10.89L43.71 10.77C45.74 10.32 46.79 8.82 46.79 7.35C46.79 6.38 46.34 5.46 45.57 4.82C44.79 4.14 43.68 3.79 42.41 3.79L38.32 3.79C38.16 3.79 38.04 3.92 38.04 4.06L38.04 5.17L38.18 5.42L38.18 5.43L40.04 8.71L38.04 8.71L38.04 15.54C38.04 15.69 38.16 15.82 38.32 15.82L39.96 15.82C40.10 15.82 40.22 15.69 40.22 15.54L40.22 10.89L41.27 10.89L41.57 11.42L43.96 15.65L43.99 15.69C44.03 15.76 44.11 15.82 44.21 15.82L46.09 15.82C46.24 15.82 46.35 15.69 46.35 15.53C46.35 15.48 46.35 15.44 46.33 15.40ZM42.25 8.19L41.01 5.98L42.41 5.98C43.92 5.98 44.59 6.69 44.59 7.35C44.59 7.91 44.09 8.53 42.95 8.68C42.83 8.69 42.69 8.71 42.55 8.71ZM53.44 15.82C50.12 15.82 47.42 13.12 47.42 9.80C47.42 6.48 50.12 3.78 53.44 3.78C56.76 3.78 59.46 6.48 59.46 9.80C59.46 13.12 56.76 15.82 53.44 15.82ZM53.44 5.96C51.32 5.96 49.60 7.69 49.60 9.80C49.60 11.91 51.32 13.62 53.44 13.62C55.55 13.62 57.26 11.91 57.26 9.80C57.26 7.69 55.55 5.96 53.44 5.96ZM68.99 12.05C68.99 13.22 68.52 14.22 67.63 14.92C66.89 15.50 65.93 15.82 64.89 15.82C63.85 15.82 62.89 15.50 62.15 14.92C61.26 14.22 60.79 13.22 60.79 12.05L60.79 4.07C60.79 3.92 60.91 3.78 61.07 3.78L62.71 3.78C62.86 3.78 62.97 3.92 62.97 4.07L62.97 12.05C62.97 13.58 64.69 13.64 64.89 13.64C65.09 13.64 66.81 13.58 66.81 12.05L66.81 4.07C66.81 3.92 66.93 3.78 67.07 3.78L68.73 3.78C68.87 3.78 68.99 3.92 68.99 4.07Z"></path></g><!----><!----></svg>